<svg width="78" height="78" viewBox="0 0 78 78" fill="none" xmlns="http://www.w3.org/2000/svg">
<g clip-path="url(#clip0_1658_39735)" filter="url(#filter0_d_1658_39735)">
<circle cx="39" cy="35" r="27" fill="#00BE7A"/>
<circle cx="39" cy="35" r="14" fill="white"/>
<g filter="url(#filter1_d_1658_39735)">
<path fill-rule="evenodd" clip-rule="evenodd" d="M39 17.749C29.4654 17.749 21.75 25.4602 21.75 34.999C21.75 38.5964 22.847 41.9239 24.7957 44.783C24.9426 45.0008 24.9823 45.2736 24.9035 45.5242L23.1516 51.3865L28.8926 49.4054C29.1412 49.3227 29.4139 49.3574 29.6338 49.4998C32.3229 51.2446 35.542 52.249 39 52.249C48.5391 52.249 56.25 44.5381 56.25 34.999C56.25 25.4599 48.5391 17.749 39 17.749V17.749ZM31.9384 25.2686L35.0784 30.457L33.7712 31.7508C33.4976 32.0268 33.4424 32.4517 33.6364 32.7885C35.6313 36.2431 37.9949 38.9306 41.3046 40.3893C41.6292 40.5335 42.009 40.4639 42.2614 40.2141L43.6495 38.826L48.7167 41.993C48.1556 43.2558 47.4241 44.0076 46.5874 44.4457C45.6182 44.9532 44.4344 45.0493 43.0835 44.7691C40.3817 44.2089 37.1181 42.0855 34.4585 39.365C31.7989 36.6447 29.7408 33.3367 29.2161 30.6457C28.9538 29.3002 29.0697 28.1414 29.5665 27.2227C29.9943 26.4316 30.7209 25.7544 31.9384 25.2686V25.2686Z" fill="#00BE7A"/>
</g>
</g>
<defs>
<filter id="filter0_d_1658_39735" x="-1" y="-1" width="80" height="80" filterUnits="userSpaceOnUse" color-interpolation-filters="sRGB">
<feFlood flood-opacity="0" result="BackgroundImageFix"/>
<feColorMatrix in="SourceAlpha" type="matrix" values="0 0 0 0 0 0 0 0 0 0 0 0 0 0 0 0 0 0 127 0" result="hardAlpha"/>
<feOffset dy="4"/>
<feGaussianBlur stdDeviation="6"/>
<feColorMatrix type="matrix" values="0 0 0 0 0.3382 0 0 0 0 0.352133 0 0 0 0 0.38 0 0 0 0.12 0"/>
<feBlend mode="multiply" in2="BackgroundImageFix" result="effect1_dropShadow_1658_39735"/>
<feBlend mode="normal" in="SourceGraphic" in2="effect1_dropShadow_1658_39735" result="shape"/>
</filter>
<filter id="filter1_d_1658_39735" x="3" y="3" width="72" height="72" filterUnits="userSpaceOnUse" color-interpolation-filters="sRGB">
<feFlood flood-opacity="0" result="BackgroundImageFix"/>
<feColorMatrix in="SourceAlpha" type="matrix" values="0 0 0 0 0 0 0 0 0 0 0 0 0 0 0 0 0 0 127 0" result="hardAlpha"/>
<feOffset dy="4"/>
<feGaussianBlur stdDeviation="6"/>
<feColorMatrix type="matrix" values="0 0 0 0 0.3382 0 0 0 0 0.352133 0 0 0 0 0.38 0 0 0 0.12 0"/>
<feBlend mode="multiply" in2="BackgroundImageFix" result="effect1_dropShadow_1658_39735"/>
<feBlend mode="normal" in="SourceGraphic" in2="effect1_dropShadow_1658_39735" result="shape"/>
</filter>
<clipPath id="clip0_1658_39735">
<rect width="56" height="56" fill="white" transform="translate(11 7)"/>
</clipPath>
</defs>
</svg>
