<svg id="Grupo_2" data-name="Grupo 2" xmlns="http://www.w3.org/2000/svg" width="80.205" height="39.559" viewBox="0 0 80.205 39.559">
    <defs>
        <style>
            .cls-2{fill:#00f4ed}.cls-3{fill:#fff}
        </style>
    </defs>
    <g id="Grupo_1" data-name="Grupo 1">
        <path id="Trazado_1" data-name="Trazado 1" d="M873.855 235.272H888.2a10.931 10.931 0 0 1 1.556.08 3.973 3.973 0 0 1 1.134.4 1.818 1.818 0 0 1 .9 1.161 7.857 7.857 0 0 1 .264 2.268 7.623 7.623 0 0 1-.264 2.215 1.9 1.9 0 0 1-.923 1.187 3.885 3.885 0 0 1-1.187.422 11.112 11.112 0 0 1-1.53.079h-18.99a8.162 8.162 0 0 1-2.268-.264 4.148 4.148 0 0 1-1.372-.633 2.21 2.21 0 0 1-.712-1.081 4.759 4.759 0 0 1-.264-1.213q-.027-.5-.026-1.5v-29.335a15.224 15.224 0 0 1 .079-1.82 4.2 4.2 0 0 1 .5-1.4 2.31 2.31 0 0 1 1.424-1.108 9.216 9.216 0 0 1 2.69-.316 8.2 8.2 0 0 1 2.267.264 4.183 4.183 0 0 1 1.371.633 2.206 2.206 0 0 1 .712 1.081 4.737 4.737 0 0 1 .264 1.213q.026.5.027 1.5z" transform="translate(-864.519 -204.048)" style="fill:#0071bc"/>
        <path id="Trazado_2" data-name="Trazado 2" class="cls-2" d="M931 209.058a15.463 15.463 0 0 1 .079-1.82 4.222 4.222 0 0 1 .5-1.4 2.313 2.313 0 0 1 1.421-1.105 9.214 9.214 0 0 1 2.69-.316 8.2 8.2 0 0 1 2.268.264 4.206 4.206 0 0 1 1.372.633 2.216 2.216 0 0 1 .712 1.081 4.819 4.819 0 0 1 .264 1.213q.027.5.026 1.5v29.326a15.125 15.125 0 0 1-.079 1.846 4.248 4.248 0 0 1-.5 1.372 2.314 2.314 0 0 1-1.423 1.108 9.228 9.228 0 0 1-2.691.317 8.156 8.156 0 0 1-2.267-.264 4.142 4.142 0 0 1-1.372-.633 2.2 2.2 0 0 1-.711-1.081 4.68 4.68 0 0 1-.264-1.213q-.027-.5-.027-1.5z" transform="translate(-900.035 -204.048)"/>
        <path id="Trazado_3" data-name="Trazado 3" class="cls-3" d="m963.672 232.054.316-.211a6.284 6.284 0 0 1 2.532-1.055q1.635 0 3.534 2.954a6.162 6.162 0 0 1 1.161 3.007 2.482 2.482 0 0 1-.712 1.793 10.275 10.275 0 0 1-2.135 1.582q-.475.317-1.346.844a19.086 19.086 0 0 1-3.561 1.372 17.9 17.9 0 0 1-5.38.844 19.559 19.559 0 0 1-4.879-.659 21.392 21.392 0 0 1-5.275-2.215 21.764 21.764 0 0 1-4.879-3.8 17.473 17.473 0 0 1-3.561-5.749 20.544 20.544 0 0 1-1.4-7.675 19.385 19.385 0 0 1 1.371-7.41 17.084 17.084 0 0 1 3.508-5.539 20.629 20.629 0 0 1 4.879-3.692 22.809 22.809 0 0 1 5.354-2.163 20.567 20.567 0 0 1 5.036-.659 20.119 20.119 0 0 1 8.914 2.321l1.266.738a15.738 15.738 0 0 1 1.451.976 4.516 4.516 0 0 1 .949 1.081 2.657 2.657 0 0 1 .448 1.477 4.961 4.961 0 0 1-1.108 2.848q-2.057 2.848-3.692 2.848a5.57 5.57 0 0 1-2.69-1.16 9.114 9.114 0 0 0-5.908-1.793 10.255 10.255 0 0 0-3.375.606 13.1 13.1 0 0 0-3.35 1.767 8.765 8.765 0 0 0-2.664 3.27 10.464 10.464 0 0 0-1.055 4.747 10.583 10.583 0 0 0 1.055 4.8 8.873 8.873 0 0 0 2.69 3.3 12.424 12.424 0 0 0 3.375 1.767 10.474 10.474 0 0 0 3.323.58 10.982 10.982 0 0 0 3.086-.422 8.016 8.016 0 0 0 2.084-.844z" transform="translate(-903.826 -203.624)"/>
        <path id="Trazado_4" data-name="Trazado 4" class="cls-3" d="M1016.686 209.058a15.572 15.572 0 0 1 .079-1.82 4.217 4.217 0 0 1 .5-1.4 2.314 2.314 0 0 1 1.424-1.108 9.214 9.214 0 0 1 2.69-.316 8.2 8.2 0 0 1 2.268.264 4.2 4.2 0 0 1 1.372.633 2.217 2.217 0 0 1 .712 1.081 4.822 4.822 0 0 1 .264 1.213q.026.5.026 1.5v29.326a15.112 15.112 0 0 1-.079 1.846 4.243 4.243 0 0 1-.5 1.372 2.314 2.314 0 0 1-1.423 1.108 9.227 9.227 0 0 1-2.691.317 8.156 8.156 0 0 1-2.268-.264 4.147 4.147 0 0 1-1.372-.633 2.2 2.2 0 0 1-.711-1.081 4.678 4.678 0 0 1-.264-1.213q-.028-.5-.027-1.5z" transform="translate(-945.816 -204.048)"/>
        <path id="Trazado_5" data-name="Trazado 5" class="cls-2" d="M873.855 235.272H888.2a10.931 10.931 0 0 1 1.556.08 3.973 3.973 0 0 1 1.134.4 1.818 1.818 0 0 1 .9 1.161 7.857 7.857 0 0 1 .264 2.268 7.623 7.623 0 0 1-.264 2.215 1.9 1.9 0 0 1-.923 1.187 3.885 3.885 0 0 1-1.187.422 11.112 11.112 0 0 1-1.53.079h-18.99a8.162 8.162 0 0 1-2.268-.264 4.148 4.148 0 0 1-1.372-.633 2.21 2.21 0 0 1-.712-1.081 4.759 4.759 0 0 1-.264-1.213q-.027-.5-.026-1.5v-29.335a15.224 15.224 0 0 1 .079-1.82 4.2 4.2 0 0 1 .5-1.4 2.31 2.31 0 0 1 1.424-1.108 9.216 9.216 0 0 1 2.69-.316 8.2 8.2 0 0 1 2.267.264 4.183 4.183 0 0 1 1.371.633 2.206 2.206 0 0 1 .712 1.081 4.737 4.737 0 0 1 .264 1.213q.026.5.027 1.5z" transform="translate(-864.519 -204.048)"/>
        <path id="Trazado_6" data-name="Trazado 6" d="M943.049 242.733q.52.539 1.074 1.037v-28.5q-.6.523-1.152 1.089a17.084 17.084 0 0 0-3.508 5.539 19.385 19.385 0 0 0-1.371 7.41 20.545 20.545 0 0 0 1.4 7.675 17.466 17.466 0 0 0 3.557 5.75z" transform="translate(-903.826 -209.847)" style="opacity:.45;fill:#00f4ed"/>
    </g>
</svg>
