<svg xmlns="http://www.w3.org/2000/svg" width="141.94" height="70.008" viewBox="0 0 141.94 70.008">
    <defs>
        <style>
            .cls-2{fill:#00f4ed}.cls-3{fill:#2e3192}
        </style>
    </defs>
    <g id="Grupo_2" data-name="Grupo 2" transform="translate(-874 -498)">
        <g id="Grupo_1" data-name="Grupo 1" transform="translate(874 498)">
            <path id="Trazado_1" data-name="Trazado 1" d="M881.041 259.022h25.389a19.342 19.342 0 0 1 2.754.141 7.031 7.031 0 0 1 2.007.7 3.216 3.216 0 0 1 1.587 2.054 13.9 13.9 0 0 1 .467 4.013 13.486 13.486 0 0 1-.467 3.92 3.356 3.356 0 0 1-1.633 2.1 6.875 6.875 0 0 1-2.1.747 19.665 19.665 0 0 1-2.708.14h-33.6a14.443 14.443 0 0 1-4.014-.467 7.342 7.342 0 0 1-2.427-1.12 3.91 3.91 0 0 1-1.26-1.914 8.414 8.414 0 0 1-.466-2.146q-.048-.886-.046-2.661v-51.9a26.965 26.965 0 0 1 .14-3.22 7.441 7.441 0 0 1 .887-2.474 4.088 4.088 0 0 1 2.52-1.96 16.312 16.312 0 0 1 4.761-.56 14.513 14.513 0 0 1 4.012.467 7.4 7.4 0 0 1 2.427 1.12 3.9 3.9 0 0 1 1.26 1.913 8.387 8.387 0 0 1 .467 2.147q.046.888.047 2.661z" transform="translate(-864.519 -203.763)" style="fill:#0071bc"/>
            <path id="Trazado_2" data-name="Trazado 2" class="cls-2" d="M931 212.631a27.384 27.384 0 0 1 .139-3.22 7.467 7.467 0 0 1 .888-2.474 4.093 4.093 0 0 1 2.521-1.96 16.307 16.307 0 0 1 4.76-.56 14.518 14.518 0 0 1 4.014.467 7.444 7.444 0 0 1 2.427 1.12 3.922 3.922 0 0 1 1.26 1.913 8.524 8.524 0 0 1 .467 2.147q.047.888.046 2.661v51.9a26.788 26.788 0 0 1-.14 3.266 7.516 7.516 0 0 1-.887 2.427 4.1 4.1 0 0 1-2.519 1.96 16.33 16.33 0 0 1-4.762.56 14.432 14.432 0 0 1-4.012-.467 7.331 7.331 0 0 1-2.428-1.12 3.9 3.9 0 0 1-1.259-1.914 8.282 8.282 0 0 1-.467-2.146q-.048-.886-.047-2.661z" transform="translate(-876.204 -203.763)"/>
            <path id="Trazado_3" data-name="Trazado 3" class="cls-3" d="m983.362 253.937.56-.374q3.172-1.866 4.481-1.867 2.893 0 6.253 5.227 2.054 3.269 2.054 5.321a4.394 4.394 0 0 1-1.26 3.173 18.183 18.183 0 0 1-3.779 2.8q-.841.561-2.381 1.493a33.775 33.775 0 0 1-6.3 2.427 31.678 31.678 0 0 1-9.521 1.493 34.613 34.613 0 0 1-8.634-1.166 37.86 37.86 0 0 1-9.335-3.921 38.513 38.513 0 0 1-8.635-6.721 30.922 30.922 0 0 1-6.3-10.174 36.359 36.359 0 0 1-2.473-13.582 34.306 34.306 0 0 1 2.426-13.114 30.234 30.234 0 0 1 6.208-9.8 36.511 36.511 0 0 1 8.635-6.534 40.364 40.364 0 0 1 9.474-3.828 36.4 36.4 0 0 1 8.913-1.166 35.605 35.605 0 0 1 15.776 4.107l2.24 1.306a27.857 27.857 0 0 1 2.567 1.728 7.991 7.991 0 0 1 1.68 1.913 4.7 4.7 0 0 1 .794 2.614 8.779 8.779 0 0 1-1.961 5.04q-3.64 5.041-6.534 5.04-1.679 0-4.76-2.053-3.922-3.172-10.455-3.173a18.149 18.149 0 0 0-5.973 1.072 23.177 23.177 0 0 0-5.928 3.128 15.511 15.511 0 0 0-4.714 5.787 18.516 18.516 0 0 0-1.867 8.4 18.728 18.728 0 0 0 1.867 8.494 15.7 15.7 0 0 0 4.761 5.834 21.986 21.986 0 0 0 5.972 3.126 18.537 18.537 0 0 0 5.881 1.027 19.435 19.435 0 0 0 5.461-.747 14.187 14.187 0 0 0 3.688-1.493z" transform="translate(-877.452 -203.624)"/>
            <path id="Trazado_4" data-name="Trazado 4" class="cls-3" d="M1016.686 212.631a27.558 27.558 0 0 1 .139-3.22 7.466 7.466 0 0 1 .888-2.474 4.1 4.1 0 0 1 2.52-1.96 16.308 16.308 0 0 1 4.76-.56 14.518 14.518 0 0 1 4.014.467 7.443 7.443 0 0 1 2.427 1.12 3.922 3.922 0 0 1 1.26 1.913 8.53 8.53 0 0 1 .467 2.147q.047.888.046 2.661v51.9a26.794 26.794 0 0 1-.14 3.266 7.514 7.514 0 0 1-.887 2.427 4.1 4.1 0 0 1-2.519 1.96 16.327 16.327 0 0 1-4.761.56 14.433 14.433 0 0 1-4.013-.467 7.34 7.34 0 0 1-2.428-1.12 3.9 3.9 0 0 1-1.259-1.914 8.28 8.28 0 0 1-.466-2.146q-.049-.886-.048-2.661z" transform="translate(-891.267 -203.763)"/>
            <path id="Trazado_5" data-name="Trazado 5" class="cls-2" d="M881.041 259.022h25.389a19.342 19.342 0 0 1 2.754.141 7.031 7.031 0 0 1 2.007.7 3.216 3.216 0 0 1 1.587 2.054 13.9 13.9 0 0 1 .467 4.013 13.486 13.486 0 0 1-.467 3.92 3.356 3.356 0 0 1-1.633 2.1 6.875 6.875 0 0 1-2.1.747 19.665 19.665 0 0 1-2.708.14h-33.6a14.443 14.443 0 0 1-4.014-.467 7.342 7.342 0 0 1-2.427-1.12 3.91 3.91 0 0 1-1.26-1.914 8.414 8.414 0 0 1-.466-2.146q-.048-.886-.046-2.661v-51.9a26.965 26.965 0 0 1 .14-3.22 7.441 7.441 0 0 1 .887-2.474 4.088 4.088 0 0 1 2.52-1.96 16.312 16.312 0 0 1 4.761-.56 14.513 14.513 0 0 1 4.012.467 7.4 7.4 0 0 1 2.427 1.12 3.9 3.9 0 0 1 1.26 1.913 8.387 8.387 0 0 1 .467 2.147q.046.888.047 2.661z" transform="translate(-864.519 -203.763)"/>
            <path id="Trazado_6" data-name="Trazado 6" d="M946.865 263.87q.921.954 1.9 1.836v-50.434q-1.055.925-2.039 1.927a30.234 30.234 0 0 0-6.208 9.8 34.306 34.306 0 0 0-2.426 13.114 36.359 36.359 0 0 0 2.473 13.582 30.909 30.909 0 0 0 6.3 10.175z" transform="translate(-877.452 -205.671)" style="opacity:.45;fill:#00f4ed"/>
        </g>
    </g>
</svg>
